<svg width="87" height="18" viewBox="0 0 87 18" fill="none" xmlns="http://www.w3.org/2000/svg">
<g clip-path="url(#clip0_30_135)">
<path fill-rule="evenodd" clip-rule="evenodd" d="M7.45207 0.641174C8.30697 -0.213725 9.69303 -0.213725 10.5479 0.641174L17.3588 7.45207C18.2137 8.30697 18.2137 9.69303 17.3588 10.5479L10.5479 17.3588C9.69303 18.2137 8.30697 18.2137 7.45207 17.3588L0.641174 10.5479C-0.213725 9.69303 -0.213725 8.30697 0.641174 7.45207L7.45207 0.641174ZM9.92876 1.26035C9.41582 0.747407 8.58418 0.747407 8.07124 1.26035L4.73304 4.59855C8.329 3.80742 12.2403 4.81019 15.0369 7.60686C15.7319 8.3018 16.316 9.06556 16.7894 9.8762C17.252 9.3605 17.2354 8.56701 16.7397 8.07124L9.92876 1.26035ZM16.1482 10.5202C15.6927 9.69759 15.1159 8.92413 14.4178 8.22604C11.4466 5.25487 7.11036 4.48076 3.42788 5.90371L1.26035 8.07124C0.747407 8.58418 0.747407 9.41582 1.26035 9.92876L1.5717 10.2401C1.62198 10.1875 1.67299 10.1353 1.72472 10.0836C5.40079 6.40749 11.3609 6.40749 15.0369 10.0836C15.2987 10.3453 15.5419 10.6187 15.7664 10.902L16.1482 10.5202ZM4.04879 12.7172L2.19105 10.8595C2.2412 10.8067 2.29215 10.7545 2.3439 10.7027C5.678 7.36862 11.0837 7.36862 14.4178 10.7027C14.68 10.965 14.9216 11.24 15.1426 11.5258L14.5529 12.1155C11.5426 9.57628 7.03713 9.72453 4.20142 12.5602C4.14965 12.612 4.09877 12.6643 4.04879 12.7172ZM13.9312 12.7372C11.2653 10.5385 7.31412 10.6859 4.82059 13.1794C4.7688 13.2312 4.71802 13.2836 4.66825 13.3367L6.52612 15.1945C6.57562 15.1413 6.62628 15.0888 6.6781 15.0369C8.37992 13.3351 10.8613 12.888 12.9728 13.6956L13.9312 12.7372ZM8.07124 16.7397L7.14579 15.8142C7.19492 15.7607 7.24541 15.708 7.29728 15.6561C8.64677 14.3066 10.5717 13.8833 12.2822 14.3862L9.92876 16.7397C9.41582 17.2526 8.58418 17.2526 8.07124 16.7397Z" fill="#666666"/>
</g>
<path d="M78.7914 14.632V3.43201H86.3434V5.54401H81.1434V12.52H86.4554V14.632H78.7914ZM79.9114 9.94401V7.89601H85.5754V9.94401H79.9114Z" fill="black"/>
<path d="M60.9826 14.632V3.43201H63.1746L67.2386 10.056L65.8146 10.04L69.9426 3.43201H72.0546V14.632H69.7026V10.84C69.7026 9.86934 69.7239 8.99467 69.7666 8.21601C69.8199 7.43734 69.9053 6.66934 70.0226 5.91201L70.2946 6.66401L67.0146 11.736H65.9426L62.7426 6.69601L62.9986 5.91201C63.1266 6.62667 63.2119 7.36267 63.2546 8.12001C63.3079 8.87734 63.3346 9.78401 63.3346 10.84V14.632H60.9826Z" fill="black"/>
<path d="M49.2901 14.792C48.4688 14.792 47.7061 14.648 47.0021 14.36C46.3088 14.072 45.7061 13.672 45.1941 13.16C44.6928 12.6373 44.2981 12.024 44.0101 11.32C43.7328 10.616 43.5941 9.84268 43.5941 9.00001C43.5941 8.16801 43.7328 7.40001 44.0101 6.69601C44.2981 5.99201 44.6928 5.37867 45.1941 4.85601C45.7061 4.33334 46.3088 3.92801 47.0021 3.64001C47.7061 3.35201 48.4688 3.20801 49.2901 3.20801C50.1114 3.20801 50.8634 3.35201 51.5461 3.64001C52.2395 3.92801 52.8421 4.33334 53.3541 4.85601C53.8661 5.37867 54.2608 5.99734 54.5381 6.71201C54.8261 7.41601 54.9701 8.17868 54.9701 9.00001C54.9701 9.83201 54.8261 10.6 54.5381 11.304C54.2608 12.008 53.8661 12.6213 53.3541 13.144C52.8421 13.6667 52.2395 14.072 51.5461 14.36C50.8634 14.648 50.1114 14.792 49.2901 14.792ZM49.2901 12.52C49.7594 12.52 50.1914 12.4347 50.5861 12.264C50.9808 12.0827 51.3221 11.8373 51.6101 11.528C51.9088 11.208 52.1381 10.8347 52.2981 10.408C52.4581 9.98134 52.5381 9.51201 52.5381 9.00001C52.5381 8.49868 52.4581 8.03467 52.2981 7.60801C52.1381 7.18134 51.9088 6.80801 51.6101 6.48801C51.3221 6.16801 50.9808 5.92267 50.5861 5.75201C50.1914 5.57067 49.7594 5.48001 49.2901 5.48001C48.8208 5.48001 48.3834 5.57067 47.9781 5.75201C47.5834 5.92267 47.2368 6.16801 46.9381 6.48801C46.6501 6.79734 46.4261 7.17067 46.2661 7.60801C46.1061 8.03467 46.0261 8.50401 46.0261 9.01601C46.0261 9.68801 46.1648 10.2907 46.4421 10.824C46.7301 11.3467 47.1141 11.7627 47.5941 12.072C48.0848 12.3707 48.6501 12.52 49.2901 12.52Z" fill="black"/>
<path d="M33.232 14.632V5.59201H30V3.43201H38.992V5.59201H35.632V14.632H33.232Z" fill="black"/>
<defs>
<clipPath id="clip0_30_135">
<rect width="18" height="18" fill="white"/>
</clipPath>
</defs>
</svg>
