<svg width="57" height="61" viewBox="0 0 57 61" fill="none" xmlns="http://www.w3.org/2000/svg">
<g clip-path="url(#clip0_30_127)">
<path fill-rule="evenodd" clip-rule="evenodd" d="M25.4758 1.13986C26.9956 -0.379955 29.4597 -0.379955 30.9795 1.13986L43.0878 13.2481C44.6076 14.7679 44.6076 17.2321 43.0878 18.7519L30.9795 30.8601C29.4597 32.38 26.9956 32.38 25.4758 30.8601L13.3675 18.7519C11.8477 17.2321 11.8477 14.7679 13.3675 13.2481L25.4758 1.13986ZM29.8788 2.24062C28.9669 1.32872 27.4884 1.32872 26.5765 2.24062L20.642 8.1752C27.0348 6.76875 33.9881 8.55145 38.96 13.5233C40.1954 14.7588 41.234 16.1165 42.0756 17.5577C42.8979 16.6409 42.8684 15.2302 41.987 14.3489L29.8788 2.24062ZM40.9356 18.7026C40.1257 17.2402 39.1003 15.8651 37.8592 14.6241C32.5772 9.342 24.8683 7.9658 18.3217 10.4955L14.4683 14.3489C13.5564 15.2608 13.5564 16.7392 14.4683 17.6511L15.0218 18.2046C15.1112 18.1111 15.2019 18.0183 15.2938 17.9263C21.8291 11.3911 32.4248 11.3911 38.96 17.9263C39.4254 18.3917 39.8577 18.8777 40.2568 19.3814L40.9356 18.7026ZM19.4255 22.6084L16.1229 19.3057C16.212 19.212 16.3026 19.1191 16.3946 19.0271C22.3219 13.0998 31.9319 13.0998 37.8592 19.0271C38.3254 19.4933 38.7549 19.9822 39.1478 20.4904L38.0995 21.5386C32.7479 17.0245 24.7381 17.2881 19.6969 22.3293C19.6048 22.4214 19.5144 22.5144 19.4255 22.6084ZM36.9942 22.6439C32.2549 18.7351 25.2305 18.9971 20.7976 23.4301C20.7055 23.5221 20.6152 23.6153 20.5268 23.7096L23.8297 27.0125C23.9177 26.9179 24.0077 26.8244 24.0998 26.7323C27.1253 23.7069 31.5367 22.912 35.2904 24.3478L36.9942 22.6439ZM26.5765 29.7594L24.9313 28.1141C25.0186 28.019 25.1084 27.9253 25.2006 27.8331C27.5997 25.434 31.0218 24.6814 34.0627 25.5754L29.8788 29.7594C28.9669 30.6713 27.4884 30.6713 26.5765 29.7594Z" fill="#666666"/>
</g>
<path d="M48.7914 60.424V49.224H56.3434V51.336H51.1434V58.312H56.4554V60.424H48.7914ZM49.9114 55.736V53.688H55.5754V55.736H49.9114Z" fill="black"/>
<path d="M30.9826 60.424V49.224H33.1746L37.2386 55.848L35.8146 55.832L39.9426 49.224H42.0546V60.424H39.7026V56.632C39.7026 55.6613 39.7239 54.7867 39.7666 54.008C39.8199 53.2293 39.9053 52.4613 40.0226 51.704L40.2946 52.456L37.0146 57.528H35.9426L32.7426 52.488L32.9986 51.704C33.1266 52.4187 33.2119 53.1547 33.2546 53.912C33.3079 54.6693 33.3346 55.576 33.3346 56.632V60.424H30.9826Z" fill="black"/>
<path d="M19.2901 60.584C18.4688 60.584 17.7061 60.44 17.0021 60.152C16.3088 59.864 15.7061 59.464 15.1941 58.952C14.6928 58.4293 14.2981 57.816 14.0101 57.112C13.7328 56.408 13.5941 55.6347 13.5941 54.792C13.5941 53.96 13.7328 53.192 14.0101 52.488C14.2981 51.784 14.6928 51.1707 15.1941 50.648C15.7061 50.1253 16.3088 49.72 17.0021 49.432C17.7061 49.144 18.4688 49 19.2901 49C20.1114 49 20.8634 49.144 21.5461 49.432C22.2395 49.72 22.8421 50.1253 23.3541 50.648C23.8661 51.1707 24.2608 51.7893 24.5381 52.504C24.8261 53.208 24.9701 53.9707 24.9701 54.792C24.9701 55.624 24.8261 56.392 24.5381 57.096C24.2608 57.8 23.8661 58.4133 23.3541 58.936C22.8421 59.4587 22.2395 59.864 21.5461 60.152C20.8634 60.44 20.1114 60.584 19.2901 60.584ZM19.2901 58.312C19.7594 58.312 20.1914 58.2267 20.5861 58.056C20.9808 57.8747 21.3221 57.6293 21.6101 57.32C21.9088 57 22.1381 56.6267 22.2981 56.2C22.4581 55.7733 22.5381 55.304 22.5381 54.792C22.5381 54.2907 22.4581 53.8267 22.2981 53.4C22.1381 52.9733 21.9088 52.6 21.6101 52.28C21.3221 51.96 20.9808 51.7147 20.5861 51.544C20.1914 51.3627 19.7594 51.272 19.2901 51.272C18.8208 51.272 18.3834 51.3627 17.9781 51.544C17.5834 51.7147 17.2368 51.96 16.9381 52.28C16.6501 52.5893 16.4261 52.9627 16.2661 53.4C16.1061 53.8267 16.0261 54.296 16.0261 54.808C16.0261 55.48 16.1648 56.0827 16.4421 56.616C16.7301 57.1387 17.1141 57.5547 17.5941 57.864C18.0848 58.1627 18.6501 58.312 19.2901 58.312Z" fill="black"/>
<path d="M3.232 60.424V51.384H0V49.224H8.992V51.384H5.632V60.424H3.232Z" fill="black"/>
<defs>
<clipPath id="clip0_30_127">
<rect width="32" height="32" fill="white" transform="translate(12.2277)"/>
</clipPath>
</defs>
</svg>
