<svg width="57" height="13" viewBox="0 0 57 13" fill="none" xmlns="http://www.w3.org/2000/svg">
<path d="M49.3354 12V0.800049H56.8874V2.91205H51.6874V9.88805H56.9994V12H49.3354ZM50.4554 7.31205V5.26405H56.1194V7.31205H50.4554Z" fill="black"/>
<path d="M31.5266 12V0.800049H33.7186L37.7826 7.42405L36.3586 7.40805L40.4866 0.800049H42.5986V12H40.2466V8.20805C40.2466 7.23738 40.2679 6.36272 40.3106 5.58405C40.3639 4.80538 40.4493 4.03738 40.5666 3.28005L40.8386 4.03205L37.5586 9.10405H36.4866L33.2866 4.06405L33.5426 3.28005C33.6706 3.99472 33.7559 4.73072 33.7986 5.48805C33.8519 6.24538 33.8786 7.15205 33.8786 8.20805V12H31.5266Z" fill="black"/>
<path d="M19.8341 12.1601C19.0128 12.1601 18.2501 12.0161 17.5461 11.7281C16.8528 11.4401 16.2501 11.0401 15.7381 10.5281C15.2368 10.0054 14.8421 9.39205 14.5541 8.68805C14.2768 7.98405 14.1381 7.21072 14.1381 6.36805C14.1381 5.53605 14.2768 4.76805 14.5541 4.06405C14.8421 3.36005 15.2368 2.74672 15.7381 2.22405C16.2501 1.70138 16.8528 1.29605 17.5461 1.00805C18.2501 0.72005 19.0128 0.57605 19.8341 0.57605C20.6555 0.57605 21.4075 0.72005 22.0901 1.00805C22.7835 1.29605 23.3861 1.70138 23.8981 2.22405C24.4101 2.74672 24.8048 3.36538 25.0821 4.08005C25.3701 4.78405 25.5141 5.54672 25.5141 6.36805C25.5141 7.20005 25.3701 7.96805 25.0821 8.67205C24.8048 9.37605 24.4101 9.98938 23.8981 10.5121C23.3861 11.0347 22.7835 11.4401 22.0901 11.7281C21.4075 12.0161 20.6555 12.1601 19.8341 12.1601ZM19.8341 9.88805C20.3035 9.88805 20.7355 9.80272 21.1301 9.63205C21.5248 9.45072 21.8661 9.20538 22.1541 8.89605C22.4528 8.57605 22.6821 8.20272 22.8421 7.77605C23.0021 7.34938 23.0821 6.88005 23.0821 6.36805C23.0821 5.86672 23.0021 5.40272 22.8421 4.97605C22.6821 4.54938 22.4528 4.17605 22.1541 3.85605C21.8661 3.53605 21.5248 3.29072 21.1301 3.12005C20.7355 2.93872 20.3035 2.84805 19.8341 2.84805C19.3648 2.84805 18.9275 2.93872 18.5221 3.12005C18.1275 3.29072 17.7808 3.53605 17.4821 3.85605C17.1941 4.16538 16.9701 4.53872 16.8101 4.97605C16.6501 5.40272 16.5701 5.87205 16.5701 6.38405C16.5701 7.05605 16.7088 7.65872 16.9861 8.19205C17.2741 8.71472 17.6581 9.13072 18.1381 9.44005C18.6288 9.73872 19.1941 9.88805 19.8341 9.88805Z" fill="black"/>
<path d="M3.77601 12V2.96005H0.544006V0.800049H9.53601V2.96005H6.17601V12H3.77601Z" fill="black"/>
</svg>
