<svg width="32" height="32" viewBox="0 0 32 32" fill="none" xmlns="http://www.w3.org/2000/svg">
<g clip-path="url(#clip0_29_37)">
<path fill-rule="evenodd" clip-rule="evenodd" d="M13.2481 1.13986C14.7679 -0.379955 17.232 -0.379955 18.7519 1.13986L30.8601 13.2481C32.3799 14.7679 32.3799 17.2321 30.8601 18.7519L18.7519 30.8601C17.232 32.38 14.7679 32.38 13.2481 30.8601L1.13986 18.7519C-0.379963 17.2321 -0.379962 14.7679 1.13986 13.2481L13.2481 1.13986ZM17.6511 2.24062C16.7392 1.32872 15.2608 1.32872 14.3489 2.24062L8.41428 8.1752C14.8071 6.76875 21.7605 8.55145 26.7323 13.5233C27.9678 14.7588 29.0063 16.1165 29.8479 17.5577C30.6702 16.6409 30.6407 15.2302 29.7594 14.3489L17.6511 2.24062ZM28.7079 18.7026C27.8981 17.2402 26.8726 15.8651 25.6316 14.6241C20.3495 9.342 12.6406 7.9658 6.09401 10.4955L2.24061 14.3489C1.32872 15.2608 1.32872 16.7392 2.24061 17.6511L2.79412 18.2046C2.88351 18.1111 2.97419 18.0183 3.06617 17.9263C9.60139 11.3911 20.1971 11.3911 26.7323 17.9263C27.1977 18.3917 27.63 18.8777 28.0291 19.3814L28.7079 18.7026ZM7.19785 22.6084L3.89519 19.3057C3.98434 19.212 4.07492 19.1191 4.16692 19.0271C10.0942 13.0998 19.7043 13.0998 25.6316 19.0271C26.0977 19.4933 26.5273 19.9822 26.9201 20.4904L25.8719 21.5386C20.5202 17.0245 12.5105 17.2881 7.46918 22.3293C7.37715 22.4214 7.2867 22.5144 7.19785 22.6084ZM24.7666 22.6439C20.0273 18.7351 13.0029 18.9971 8.56994 23.4301C8.47786 23.5221 8.38758 23.6153 8.2991 23.7096L11.602 27.0125C11.69 26.9179 11.78 26.8244 11.8722 26.7323C14.8976 23.7069 19.309 22.912 23.0627 24.3478L24.7666 22.6439ZM14.3489 29.7594L12.7036 28.1141C12.791 28.019 12.8807 27.9253 12.9729 27.8331C15.372 25.434 18.7942 24.6814 21.8351 25.5754L17.6511 29.7594C16.7392 30.6713 15.2608 30.6713 14.3489 29.7594Z" fill="#CCCCCC"/>
</g>
<defs>
<clipPath id="clip0_29_37">
<rect width="32" height="32" fill="white"/>
</clipPath>
</defs>
</svg>
